<svg xmlns="http://www.w3.org/2000/svg" width="115.04" height="110.303" viewBox="240.12 323.688 115.04 110.303" enable-background="new 240.12 323.688 115.04 110.303"><path d="M248.18 429.465c-2.898 0-5.726-.99-8.06-2.616l2.263-4.81c1.485 1.344 3.747 2.617 5.657 2.617 1.838 0 3.818-1.202 3.818-3.04 0-1.768-1.768-3.04-3.465-3.04h-2.333v-3.818h1.838c1.556 0 3.253-.85 3.253-2.405 0-1.414-1.696-1.98-3.252-1.98-1.485 0-2.828.636-3.96 1.556l-2.404-4.595c2.05-1.13 4.88-1.91 7.212-1.91 4.1 0 7.92 2.052 7.92 6.365 0 1.838-1.344 3.747-3.04 4.737 2.403.636 4.03 2.687 4.03 5.798 0 4.878-4.88 7.14-9.475 7.14zM278.23 421.05c0 5.304-4.383 8.274-9.403 8.274s-9.404-2.97-9.404-8.273 4.384-8.342 9.404-8.342 9.404 3.04 9.404 8.343zm-12.938 0c0 1.98 1.343 3.466 3.535 3.466 2.263 0 3.535-1.556 3.535-3.465s-1.343-3.534-3.535-3.534c-2.263 0-3.535 1.626-3.535 3.535zM298.524 421.05c0 5.304-4.384 8.274-9.404 8.274s-9.404-2.97-9.404-8.273 4.384-8.342 9.404-8.342 9.404 3.04 9.404 8.343zm-12.94 0c0 1.98 1.344 3.466 3.536 3.466 2.263 0 3.535-1.556 3.535-3.465s-1.343-3.534-3.535-3.534c-2.263 0-3.535 1.626-3.535 3.535zM312.453 418.364c-.848-.636-1.768-1.06-2.828-1.06-2.12 0-3.818 1.625-3.818 3.817 0 2.264 1.626 3.82 3.89 3.82.99 0 2.05-.425 2.757-1.062v4.667c-1.202.636-2.545.848-3.89.848-4.595 0-8.484-3.465-8.484-8.13 0-5.02 3.818-8.486 8.697-8.486 1.273 0 2.545.283 3.677.92v4.667zM332.746 428.9h-5.515v-1.768h-.07c-.99 1.556-2.9 2.263-4.737 2.263-4.596 0-7.848-3.89-7.848-8.343 0-4.455 3.182-8.273 7.848-8.273 1.768 0 3.677.635 4.808 2.05v-1.556h5.516V428.9zm-12.515-7.85c0 1.98 1.344 3.466 3.536 3.466s3.535-1.556 3.535-3.465-1.342-3.534-3.534-3.534c-2.192 0-3.535 1.626-3.535 3.535zM340.17 433.99h-5.232v-9.475h.212c2.616 0 3.04-2.616 3.04-5.303v-6.01h14.848v11.313h2.12v9.475h-5.23v-5.162h-9.76v5.162zm7.354-16.262h-3.818v2.828c0 1.556-.354 3.04-1.626 4.03h5.444v-6.858z"/><linearGradient id="a" gradientUnits="userSpaceOnUse" x1="379.317" y1="664.758" x2="486.083" y2="664.758" gradientTransform="matrix(.707 0 0 -.707 -8.319 829.945)"><stop offset=".27" stop-color="#05D2C2"/><stop offset="1" stop-color="#69FF39"/></linearGradient><path fill="url(#a)" d="M298.24 332.95c2.617 0 4.738-1.98 4.738-4.384 0-1.202-.566-2.404-1.556-3.182-.07-.07-.07-.07-.07-.14-.213-.92-1.062-1.557-1.98-1.557-.496 0-.99.14-1.344.495-.07.07-.14.07-.212.07-2.475.213-4.384 2.052-4.384 4.385s2.193 4.313 4.81 4.313zm-1.272-6.787c.14-.07.354 0 .424.212.283.848 1.06 1.414 1.98 1.414.424 0 .85-.142 1.202-.355.14-.14.424-.07.495.14.14.284.21.637.21.99 0 1.415-1.342 2.617-2.97 2.617s-2.97-1.202-2.97-2.616c-.14-1.06.568-1.98 1.628-2.403zm3.324 47.94c.92.847.778 2.474-.778 3.04h-.07c-.85.07-1.486-.284-1.84-.78-.07-.07-.14-.21-.14-.353 0 0-.212-.778-.707-.99-.424-.14-.92-.14-1.13-.212-.567-.14-1.132-.495-1.486-1.343v-.07c-.07-1.486 1.132-2.264 2.193-2.05.14 0 .212-.142.354-.284l5.09-7.99c.072-.14.142-.282.072-.353-.92-.848-.78-2.475.777-3.04h.07c.85-.07 1.486.283 1.84.778.07.07.14.212.14.354 0 0 .212.777.707.99.424.14.92.14 1.13.21l.637.213c.85.495 1.062 1.626.567 2.475-.424.636-1.202.92-1.91.778-.14 0-.21.14-.353.283 0-.072-5.162 8.2-5.162 8.342 0-.07 0-.07 0 0zm7.282-27.648c-.99 4.03-4.596 7-8.91 7-3.534 0-6.645-2.05-8.13-5.02-.14-.283.212-.566.495-.424.777.567 1.908.99 3.605 1.062 2.9 0 5.232-1.06 7.14-2.192 1.84-1.06 4.314-1.697 5.163-1.273.07 0 .354.212.636.424v.425zm-17.96-3.393c.637-4.454 4.455-7.92 9.05-7.92 4.738 0 8.698 3.678 9.122 8.274-.354.212-.14.07-.495.283-.14-.142-.353-.213-.494-.284-2.05-.707-4.667.354-6.293 1.273-2.12 1.2-4.525 2.262-7.778 1.625-1.838-.354-2.687-2.12-3.04-3.182-.07.07-.07 0-.07-.07zm45.395 13.15s0-.07 0 0c.353-.706.282-1.555-.142-2.19s-1.13-.92-1.838-.85c-.14 0-.283-.07-.354-.282-.07-.495-.212-.92-.354-1.343-1.414-3.323-5.09-4.808-7.354-4.737-1.626.07-6.293 1.98-4.454 4.667 0 0 7.14 10.253 7.707 11.03.567.848 1.627 1.343 2.405.495l.07-.07c.567-.78 1.062-1.98 1.486-3.466.072-.14.213-.283.425-.212.636.212 1.343.212 1.91-.212.918-.637 1.13-1.91.494-2.83zm-4.668 3.112h-.14c-1.203-.424-.92-2.05.353-2.05h.14c1.273.424.99 2.05-.353 2.05zm-54.303 17.182c0-.07 0-.07 0 0-.213-.495 0-.99.423-1.202.212-.07.495-.07.707 0 .14.07.354 0 .424-.14.283-.496.566-.92.848-1.203.424-.353.848 0 .99.355.14.424 2.333 5.303 2.333 5.303.566 1.273-1.556 1.697-2.263 1.626-.99-.14-2.404-1.06-2.758-2.616 0-.14-.07-.283-.07-.424s-.072-.283-.284-.283c-.283-.07-.495-.21-.566-.494-.068-.355.003-.708.215-.92zm49.07-7.707c-.07.423-.283.777-.566.99-.07.07-.14.14-.07.282.07.354 0 .707-.142.99-.14.283-.354.566-.636.707-.07.07-.14.14-.14.282 0 .495-.142.99-.567 1.343 0 0-.072 0-.072.07-.07.072-.14.213-.14.284.14.565-.072 1.13-.496 1.555-.283.283-.707.424-1.13.424-.284 0-.637-.072-.85-.284-.14-.07-.282-.07-.353.07-.072.072-.213.213-.355.284-.212.14-.495.212-.778.212-.283 0-.566-.07-.778-.212-.142-.07-.284-.07-.355.07-.283.284-.707.496-1.202.496h-.14c-.142 0-.355-.07-.496-.14h-.283c-.212.07-.424.14-.636.14-.283 0-.495-.07-.778-.212-.566-.283-.848-.848-.848-1.485 0-.142-.07-.284-.212-.284-.354-.07-.707-.283-.99-.636-.14-.14-.212-.354-.212-.495h-.07c-.78 0-1.486-.566-1.627-1.414v-.494c0-.14-.07-.283-.14-.354-.495-.212-.848-.707-.92-1.273-.07-.567.213-1.132.637-1.486.14-.07.14-.212.07-.354-.14-.424-.14-.848 0-1.273.213-.424.496-.707.92-.848.07-.072.14-.142.14-.213 0-.14.072-.283.072-.354.07-.212.21-.354.353-.566.07-.07.14-.14.07-.283-.14-.707.142-1.414.78-1.768.21-.14.423-.212.706-.212.14 0 .21-.07.282-.212.14-.424.424-.778.848-.99.495-.212.99-.212 1.485 0 .07.07.212.07.354-.07.353-.284.777-.425 1.272-.355.424.07.848.283 1.06.636.072.07.213.14.355.14.283-.07.636-.07.92 0 .353.142.635.355.777.567.07.07.212.14.354.14.636-.21 1.343 0 1.768.567.354.424.424.99.283 1.485-.072.212.07.354.282.354.495.07.92.283 1.202.778.283.495.354 1.06.14 1.556-.07.14 0 .283.072.354.56.283.844.92.774 1.485zm-52.748 4.453c5.162-1.556 8.06-6.93 6.576-12.09-1.556-5.163-6.93-8.062-12.09-6.577-5.163 1.556-8.062 6.93-6.577 12.09 1.557 5.163 6.93 8.062 12.092 6.577zm-4.313-4.95l-.284-2.403c0-.07-.07-.212-.14-.212l-2.122-1.13c-.212-.142-.212-.425 0-.567l2.192-.99c.07-.07.14-.14.14-.21l.425-2.405c.072-.283.355-.354.496-.14l1.626 1.767c.07.07.14.14.283.07l2.404-.353c.282-.072.423.21.282.423l-1.202 2.12c-.07.072-.07.213 0 .284l1.06 2.192c.142.21-.07.494-.353.423l-2.404-.495c-.07 0-.212 0-.283.07l-1.768 1.698c0 .21-.353.14-.353-.142zm6.08-21.99c.495.072 1.343.496 2.05.85.14.07.354 0 .424-.142.424-.777 1.414-1.413 2.687-1.625 1.203-.212 2.264 0 2.97.566.142.072.284.072.425-.07.495-.566 1.13-1.273 1.556-1.485.708-.424.567.495.92.92.566.706 0 .99.14 1.767.213.778.213.566.355.92.212.777-.212 1.2-1.202.918-.424-.07-.848-.424-1.202-.778-.14-.14-.353-.07-.494.07-.495.708-1.414 1.344-2.616 1.557s-2.404 0-3.11-.567c-.142-.14-.355-.07-.496.07-.212.496-.566.99-.92 1.274-.848.566-1.413.354-1.484-.424-.07-.354.07-.212 0-.99s-.778-.848-.495-1.697c.14-.425-.283-1.203.495-1.132zm59.464 22.344c0 .424-.495 1.202-.99 1.343-.495.212-.92.566-1.13.848-.213.283-.496 1.626-.496 1.91 0 .282.14 1.13.566 1.696.354.566.283 1.06-.14 1.626-.425.566-1.132.354-1.344.212s-.92-.99-1.414-1.06c-.283-.072.07-.072-.85 0-.99.07-1.342-.072-1.413-.85-.14-.777.354-1.13.92-1.413.565-.355.847-.567 1.06-.78.212-.21.636-1.98.636-2.403 0-.424-.425-1.06-.708-1.556-.283-.423-.212-.847.07-1.413.284-.566.99-.495 1.344-.283.283.14.636.636 1.13.848.355.14.637.07.92.07.283-.07.636-.21 1.06-.07.496.144.778.78.778 1.275zm-27.646-13.434c-.212-2.05 1.06-2.616 2.333-2.687 4.173.07 4.243-2.333 3.748-3.677-.283-.92-.707-2.193-.07-3.324.635-1.202 3.534-1.485 4.1.707.354 1.414-.636 2.475-.99 3.253-.283.778-.636 2.12-.14 2.758s1.2.99 2.12 1.202c.92.212 3.323.92 2.404 2.97-1.06 2.404-3.394 1.13-3.818.636-.424-.424-1.414-2.263-2.404-2.545-.99-.283-2.263 0-3.465 1.485-1.2 1.484-3.605.918-3.817-.78zm4.172-18.242c.07.072.07.142.14.213 0 .707.213 1.414.567 2.05.707 1.132 1.556.637 2.333-.21.07-.072.212-.142.354-.072 2.12.92 4.03.99 5.374.85.14 0 .354.14.354.282.07 1.414.566 3.323 1.91 4.455.14.14.353.07.423 0 1.273-1.485 1.343-2.758 1.343-3.253 0-.14.07-.283.212-.283.778-.21 3.182-.918 3.535-2.05 0-.14 0-.282-.14-.353-2.052-1.414-3.89-1.343-5.163-.99-.14.07-.354-.07-.354-.212-.14-1.06-.566-2.475-1.556-3.96-.07-.14-.07-.283.07-.354.92-.918 2.334-2.686.567-3.676-1.91-1.06-4.243-.495-4.88-.283h-.212c-3.04-1.696-7.14-.777-8.13-.494-.142.07-.213.14-.213.283-.07.99.354 5.515 3.465 8.06zm-.495-7.494h.14c1.203.07 1.344 1.556.213 1.91h-.14c-1.203-.072-1.345-1.627-.213-1.91zm-19.02 58.616l-2.687-1.556c-1.202-.92-3.182-2.404-3.89-2.828-1.342-.778-2.474 3.182-5.16 1.98-2.688-1.13-7-7.566-10.183-7.14h-.07c-1.274.353-1.698.918-1.84 1.13-.14.212-.423.848-.07 2.12v.072c1.202 2.97 8.98 3.465 11.313 5.232 2.333 1.697-.495 4.667.85 5.444.706.424 3.04 1.414 4.453 1.91h.072l2.828 1.625c.07.072.14.072.212 0 .636-.21.636-.918.212-1.13l-1.485-.848c-.142-.07-.213-.283-.142-.424l.07-.212c.072-.14.284-.212.425-.14l1.626.918c.07.07.14.07.21 0 .637-.212.637-.92.213-1.13l-1.485-.85c-.14-.07-.212-.283-.14-.424l.07-.212c.07-.14.283-.212.424-.14l1.626.918c.07.07.14.07.212 0 .636-.212.636-.92.212-1.13l-1.485-.85c-.14-.07-.212-.282-.14-.423l.07-.212c.07-.14.283-.21.424-.14l1.627.92c.07.07.14.07.212 0 .635-.213.635-.92.21-1.132l-1.484-.848c-.14-.07-.212-.283-.14-.424l.07-.212c.07-.14.283-.212.424-.14l1.626.918c.07.07.14.07.212 0 .992.28.92-.428.497-.64zm-22.626-6.788v-.14c-.142-1.344 1.484-1.77 2.05-.567v.14c.07 1.345-1.557 1.77-2.05.567zm47.443 8.91c-.07.21.07.706-1.556 1.06-.85.212-2.192.495-3.253.707-.14 0-.212.142-.212.284.07.99-.566 1.91-1.485 2.12-.92.213-1.838-.353-2.192-1.272-.07-.14-.212-.212-.354-.212-1.13.212-2.403.495-3.252.707-1.626.354-1.697-.212-1.838-.354s-.354-.848.424-1.768 1.273-1.343.707-6.08c-.353-2.9.99-4.173 2.122-4.738.212-.07.212-.354.07-.495-.21-.212-.353-.495-.423-.778-.284-1.202.918-2.404 2.403-1.768 0 0 .07 0 .07.07.637.567.78 1.344.567 1.91-.07.212.07.424.283.424 1.273 0 2.97.636 3.89 3.394 1.413 4.525 1.98 4.737 3.11 5.232 1.132.496 1.06 1.345.92 1.557zm-19.374 3.464c-.142.354-.496.636-.92.636-.07 0-.212 0-.283-.07-.495-.213-.707-.708-.566-1.203 3.395-8.908-.282-10.817-4.948-13.292-2.616-1.343-5.303-2.758-6.717-5.586-1.414-2.828-1.343-6.222.07-9.263.99-2.122 2.546-3.678 4.102-4.385-1.485-1.13-3.182-2.545-3.89-3.465-1.413-1.838.425-1.697.92-2.758.707-1.768 1.91-.283 3.11-.99 1.203-.707.92-.848 1.486-1.202 1.343-.848 2.404.212 2.9 2.97.282 1.414-.072 3.11-.496 4.384 1.626 1.202 4.03 3.04 4.95 4.172 1.413 1.838-.425 1.697-.92 2.758-.707 1.768-1.91.283-3.11.99-1.274.778-.92.848-1.486 1.202-1.342.848-2.403-.212-2.898-2.97-.212-1.13 0-2.333.212-3.465-.99.425-2.263 1.557-3.253 3.466-.706 1.485-1.696 4.384-.14 7.636 1.13 2.263 3.394 3.465 5.87 4.737 4.807 2.475 10.04 5.233 6.01 15.698zm28.07-12.162c.07.283.07.566.07.848 0 .283-.14.566-.282.848-.14.283-.354.495-.566.707-.212.21-.495.353-.778.423l-.212.07c-.14.072-.212.213-.14.355l.07.14c.07.284.07.567.07.85 0 .282-.14.565-.282.847-.14.283-.354.495-.566.707-.212.212-.495.354-.778.424-.354.14-.636.14-.99.14s-.636-.07-.92-.21c-.282-.142-.494-.355-.706-.567-.212-.213-.354-.567-.424-.85l-1.202-4.454v-.212s0-.07.07-.07l.072-.072 4.313-1.626c.353-.14.635-.14.99-.14.282 0 .635.07.918.282.283.14.566.354.707.636.282.356.423.64.565.922zm-62.717-32.242c1.13.92 2.05.636 2.687.212.212-.14.495 0 .495.283-.07.706.212 1.696 1.556 2.19.92.284 1.415-.07 1.627-.282.07-.07.07-.212.07-.283-.14-.495-.635-2.263-.07-3.606.707-1.557 1.273-1.77 2.192-2.476.918-.707 3.534-3.11 4.24-6.08.637-2.617 0-4.95-.706-5.445h-.07c-.78-.355-3.324-.072-5.375 2.05-2.122 2.192-2.83 5.657-2.9 6.86-.14 1.13-.14 1.98-1.13 3.393-.78 1.13-2.334 1.556-2.83 1.626-.14 0-.21.14-.282.21-.212.212-.212.778.495 1.344zm11.03-13.08l.07.07c.708 1.414-.918 2.545-2.05 1.485l-.07-.072c-.707-1.414.92-2.616 2.05-1.485zm11.596 5.514c1.06 0 1.342-.212 1.342-.212 8.273-5.232 4.525-15.13 3.323-15.697-1.13-.92-3.04-1.486-5.02-.92-2.263.707-3.818 4.88-4.1 6.15-.355 1.415.282 2.405 1.342 2.83 1.626.565 2.9-.142 3.182-1.062.282-.848.706-2.687 1.837-4.242.14-.212.424-.14.495.07 1.06 2.476.85 8.062-2.475 9.76-.212.07-.424 0-.424-.213-.07-.636-.07-1.343 0-2.263 0-.212-.212-.424-.424-.283-.78.283-2.264.636-3.748-.707-.212-.14-.495-.07-.495.212-.14 2.192.636 3.89.99 4.596.707 1.273 3.11 1.98 4.172 1.98zm-2.83-10.11l-.07-.072c-.354-1.06.848-1.768 1.556-.92l.07.072c.424 1.06-.848 1.768-1.555.92zm1.556-2.97l-.07-.072c-.355-1.06.848-1.768 1.555-.92l.072.072c.424 1.06-.85 1.768-1.556.92z"/></svg>