<svg xmlns="http://www.w3.org/2000/svg" width="595.28" height="570.477" viewBox="0 135.707 595.28 570.477" enable-background="new 0 135.707 595.28 570.477"><g fill="#fff"><path d="M183.38 196.227c-5.54-6.614-15.13-1.157-12.155 6.945.083.248.248.496.413.744 5.54 6.614 15.13 1.157 12.154-6.945-.082-.247-.247-.578-.413-.743zM85.49 579.934c-4.218-9.177-16.62-5.87-15.627 4.217 0 .25.083.58.248.828 4.218 9.177 16.62 5.87 15.627-4.217 0-.247-.083-.578-.248-.826zM302.187 200.774c12.65 0 22.984-9.012 22.984-20.09 0-2.647-.578-5.292-1.735-7.69-.66-1.406-2.398-1.82-3.638-.91-2.646 1.82-5.787 2.812-8.93 2.812-6.944 0-12.98-4.465-15.13-10.748-.495-1.323-1.9-2.067-3.223-1.57-7.937 3.223-13.228 10.334-13.228 18.188-.083 10.996 10.17 20.008 22.9 20.008zM89.457 251.042c8.516 8.433 20.835-.496 15.46-11.244-.164-.248-.33-.496-.495-.66-8.516-8.434-20.835.495-15.46 11.243.082.25.247.497.495.662zM90.2 473.28l18.273 3.638c1.902.413 3.39-1.57 2.563-3.307l-8.268-16.7c-.33-.66-.33-1.488.083-2.15l9.096-16.288c.992-1.736-.496-3.72-2.398-3.472l-18.437 2.646c-.743.083-1.57-.165-2.066-.744l-12.65-13.725c-1.323-1.406-3.72-.744-4.05 1.157L69.2 442.688c-.164.744-.66 1.406-1.322 1.736l-16.95 7.772c-1.735.827-1.818 3.307-.082 4.217l16.536 8.68c.66.332 1.157 1.076 1.24 1.82l2.232 18.52c.248 1.902 2.563 2.728 3.97 1.406l13.393-12.98c.496-.497 1.24-.745 1.984-.58zM195.368 173.573c-5.54-6.614-15.13-1.157-12.154 6.945.083.248.248.496.413.744 5.54 6.697 15.13 1.158 12.154-6.945-.082-.248-.247-.496-.412-.744zM0 135.707v570.477h595.28V135.707H0zM367.337 180.6c7.69-1.983 38.94-9.01 62.422 4.052.495.33 1.157.33 1.735.165 4.713-1.406 22.488-5.87 37.122 2.15 13.724 7.44 3.06 21.166-4.134 28.028-.827.744-.91 1.984-.33 2.894 7.605 11.657 10.664 22.405 11.74 30.424.164 1.323 1.487 2.232 2.81 1.82 9.84-2.812 23.73-3.06 39.437 7.523.827.496 1.158 1.57.91 2.48-2.564 8.93-21.084 14.386-26.954 15.874-.992.25-1.654 1.158-1.654 2.15.083 3.804-.91 13.56-10.5 25.135-.827.992-2.315 1.157-3.307.248-9.84-8.847-13.973-23.398-14.386-34.31-.084-1.324-1.16-2.316-2.48-2.15-10.17 1.156-24.556.578-41.01-6.367-.826-.33-1.818-.165-2.48.496-5.786 6.035-12.65 9.84-17.857 1.406-2.976-4.878-4.134-10.417-4.382-15.626 0-.66-.33-1.24-.826-1.654-23.646-19.43-27.036-54.154-27.532-62.504-.08-.993.58-1.985 1.655-2.233zm11.99 184.124h.164c31.75.66 32.245-17.776 28.938-28.358-2.15-6.78-5.21-16.7-.744-25.63 4.713-9.343 27.036-11.41 31.583 5.374 2.894 10.665-5.043 19.1-7.358 24.97-2.316 5.87-5.127 16.204-1.24 21.33 3.885 5.126 9.094 7.358 16.204 9.012 7.11 1.736 25.217 7.193 18.437 22.984-8.02 18.437-25.877 8.433-29.02 5.043s-10.83-17.446-18.52-19.678c-7.77-2.232-17.444.165-26.62 11.41-9.26 11.244-28.36 6.862-29.682-5.87-1.654-15.462 7.936-20.01 17.858-20.588zm-73.833 7.11c-27.284 0-50.93-15.626-62.587-38.362-1.157-2.315 1.488-4.547 3.638-3.06 5.953 4.383 14.8 7.442 27.78 8.27h.248c22.323 0 39.933-8.186 54.567-16.702 14.138-8.185 33.236-12.98 39.272-9.84.33.166 2.81 1.737 4.63 3.39.66.58.91 1.49.744 2.316-7.358 31.087-35.138 53.988-68.292 53.988zm-6.283-224.718c.497 0 .993-.248 1.324-.58 2.894-2.397 6.45-3.72 10.252-3.72 7.276 0 13.642 4.96 15.46 11.906.166.496.414.91.745 1.24 7.442 6.366 11.66 15.295 11.66 24.638 0 18.52-16.37 33.65-36.545 33.65-20.09 0-36.544-15.047-36.544-33.65.084-17.527 14.718-32.078 33.65-33.484zm6.284 84.332c36.544 0 66.556 27.945 69.863 63.662-2.646 1.406-1.24.66-3.886 2.067-1.156-.91-2.48-1.654-4.05-2.232-15.46-5.622-35.634 2.48-48.366 9.92-16.122 9.344-34.477 17.363-59.693 12.485-14.22-2.728-20.75-16.453-23.314-24.225-.083-.33-.165-.744-.083-1.075 4.712-34.228 34.063-60.602 69.53-60.602zm-151.88-.166c.166-1.984 2.48-2.976 3.97-1.57 11.492 10.334 23.15 7.605 28.937 5.208 1.655-.66 3.39.66 3.225 2.398-.66 6.78-.66 12.484-.165 17.28.165 1.654 1.984 2.646 3.39 1.902 25.465-13.228 27.2-55.807 18.933-74.906-.744-1.654-2.976-1.984-4.05-.496-8.848 11.658-12.155 25.713-14.222 32.327-2.15 7.028-11.822 12.732-24.14 8.185-8.186-3.06-12.65-10.417-10.253-21.496 2.15-9.92 14.303-41.835 31.418-47.044 15.295-4.713 30.177-.165 38.61 6.862 9.344 4.217 37.537 80.197-25.63 120.048 0 0-2.066 1.57-10.334 1.736-8.35.165-26.62-5.21-32.16-15.378-2.812-5.374-8.517-18.438-7.525-35.056zm-17.03 91.276c3.472-5.953 11.08-10.83 20.42-12.567 9.096-1.653 17.61.084 22.985 4.052.99.744 2.397.66 3.223-.33 3.886-4.466 8.764-9.51 11.823-11.162 5.622-3.06 4.382 3.97 7.11 7.193 4.382 5.21-.165 7.606 1.24 13.56 1.406 5.87 1.82 4.546 2.48 7.275 1.57 6.2-1.82 9.012-9.425 7.276-3.14-.744-6.53-3.142-9.424-5.705-1.075-.993-2.81-.828-3.555.412-3.637 5.705-10.995 10.335-20.09 12.07-9.425 1.737-18.272-.247-23.646-4.63-1.157-.99-2.976-.578-3.638.745-1.82 3.72-4.3 7.606-7.193 9.59-6.45 4.383-10.665 2.895-11.327-3.39-.33-2.81.496-1.653-.248-7.688-.744-6.036-5.953-6.615-3.638-13.064 1.406-4.05-2.232-10.17 4.134-9.26 3.555.496 10.417 3.803 15.79 6.697.913.496 2.318.083 2.98-1.075zm-4.796 225.215c-1.488-3.39 0-7.358 3.39-8.93 1.736-.743 3.555-.743 5.21-.164 1.24.495 2.645.082 3.306-1.158 2.15-3.97 4.382-7.11 6.45-9.012 3.306-2.48 6.283-.083 7.605 2.976 1.322 3.06 18.105 40.595 18.105 40.595 4.382 9.922-11.906 13.064-17.197 12.32-7.524-.992-18.52-8.185-21-19.843-.248-1.075-.33-2.232-.413-3.472 0-1.158-.827-2.15-1.902-2.398-1.902-.496-3.555-1.82-4.465-3.803-1.075-2.398-.58-5.126.992-7.028l-.082-.083zM14.882 328.346c.248-.91.992-1.654 1.902-1.82 3.97-.743 15.71-3.554 21.91-12.4 7.524-10.832 8.02-17.198 8.93-25.962.826-8.764 5.952-35.303 22.405-52.335 15.873-16.37 35.468-18.604 41.42-15.875.166.083.332.165.414.248 5.457 3.886 10.335 21.992 5.374 41.918-5.622 22.985-25.63 41.34-32.575 46.63-6.945 5.375-11.41 6.698-16.618 18.852-4.382 10.252-.744 23.73.496 27.78.25.827.084 1.736-.495 2.315-1.57 1.654-5.374 4.217-12.236 1.984-10.418-3.47-12.155-10.912-11.74-16.535.164-1.984-2.15-3.307-3.722-2.15-4.713 3.224-12.154 5.622-20.587-1.406-5.457-4.547-5.374-8.93-4.878-11.244zM11.327 472.95c-11.658-39.438 10.83-80.86 50.268-92.517 39.437-11.658 80.86 10.83 92.516 50.268 11.66 39.438-10.83 80.86-50.267 92.517-39.437 11.658-80.86-10.83-92.516-50.268zm230.92 172.63c-.58.166-1.24.084-1.737-.247l-12.402-7.11c-1.157-.66-2.563-.248-3.224.827l-.827 1.406c-.66 1.157-.248 2.563.827 3.224l11.41 6.532c3.224 1.902 3.307 7.193-1.736 8.764-.58.165-1.24.083-1.736-.248l-12.402-7.11c-1.157-.66-2.563-.248-3.224.827l-.827 1.406c-.662 1.158-.25 2.564.826 3.225l11.41 6.532c3.224 1.902 3.307 7.193-1.736 8.764-.58.166-1.24.084-1.736-.247l-12.402-7.11c-1.157-.66-2.563-.248-3.224.827l-.827 1.406c-.66 1.157-.247 2.563.828 3.224l11.41 6.532c3.224 1.902 3.307 7.193-1.736 8.764-.58.165-1.24.083-1.736-.248l-12.402-7.11c-1.157-.66-2.563-.248-3.224.827l-.827 1.406c-.66 1.158-.248 2.564.827 3.225l11.41 6.532c3.224 1.902 3.307 7.193-1.736 8.764-.58.166-1.24.084-1.736-.247l-21.496-12.32c-.083-.082-.165-.082-.248-.164-10.5-4.3-28.44-11.74-34.063-14.883-10.582-5.953 11.245-28.69-6.613-41.835-17.528-13.394-77.056-17.197-86.398-40.182-.084-.083-.084-.248-.084-.33-2.894-9.84-.58-14.883.58-16.537.908-1.82 4.05-6.284 13.972-8.847.083 0 .248-.083.33-.083 24.556-3.472 57.875 46.052 78.214 54.733 20.42 8.68 29.02-21.58 39.437-15.46 5.538 3.223 21 14.964 30.01 21.91.084.082.166.082.25.164l20.42 11.74c3.137 1.898 3.22 7.19-1.824 8.76zm43.405 34.23c-1.157 2.975-3.97 4.712-6.945 4.63-.744 0-1.57-.166-2.315-.497-3.72-1.406-5.54-5.54-4.134-9.26 25.96-68.457-2.15-83.174-37.7-101.776-20.01-10.417-40.596-21.248-51.18-42.91-10.747-21.91-10.416-47.705.828-70.855 7.772-15.957 19.677-28.358 31.583-33.402-11.493-8.68-24.39-19.264-30.013-26.292-10.913-13.807 3.39-12.98 6.945-21.414 5.622-13.394 14.386-2.067 24.06-7.772 9.672-5.705 6.78-6.284 11.243-9.012 10.087-6.284 18.52 1.82 22.158 22.57 1.902 10.914-.827 23.812-3.803 33.568 12.732 9.26 31.004 23.398 37.95 32.244 10.912 13.807-3.39 12.98-6.946 21.414-5.622 13.394-14.386 2.067-24.06 7.772-9.672 5.705-6.78 6.284-11.243 9.012-10.086 6.284-18.52-1.82-22.157-22.57-1.488-8.434-.165-18.107 1.902-26.54-7.44 2.975-17.528 11.987-24.72 26.787-5.458 11.244-12.816 33.815-.828 58.288 8.516 17.445 26.21 26.705 44.977 36.46 35.055 18.44 74.906 39.274 44.398 119.554zm26.54-126.663c-.25.083-.414.165-.662.165-6.532.413-11.244-2.232-13.89-6.035-.58-.827-.992-1.654-1.323-2.563 0 0-1.82-5.87-5.705-7.524-3.142-1.323-6.862-.91-8.93-1.406h-.329c-4.547-.827-8.847-4.05-11.16-10.335-.084-.166-.084-.414-.166-.662-.58-11.575 8.68-17.61 16.95-15.626.082 0 .164 0 .247-.083.91-.084 1.82-1.076 2.563-2.068l39.024-61.43c.58-1.075.91-2.15.662-2.894-.083-.083-.165-.083-.165-.165-6.78-6.45-5.787-18.933 6.035-23.48.165-.083.413-.165.66-.165 6.45-.496 11.245 2.15 13.974 6.035.58.827.992 1.654 1.323 2.563 0 0 1.818 5.87 5.704 7.524 3.142 1.323 6.78.91 8.93 1.406h.247c1.655.33 3.225.91 4.796 1.902 6.366 4.05 8.185 12.402 4.134 18.768-3.224 5.043-9.177 7.276-14.634 5.953-.083 0-.165 0-.248.082-.91.083-1.82 1.075-2.563 2.15 0 0-39.933 63.662-39.603 64.406.083.083.165.083.165.165 6.78 6.2 5.787 18.684-6.036 23.314zm121.95 100.04c-.662 1.57.578 5.54-11.99 8.35-6.696 1.488-16.7 3.638-25.133 5.457-1.076.248-1.82 1.157-1.737 2.232.33 7.606-4.3 14.47-11.41 16.04-7.11 1.487-14.22-2.812-16.95-9.922-.412-.992-1.487-1.57-2.562-1.406-8.432 1.82-18.436 3.97-25.133 5.374-12.567 2.563-13.063-1.57-14.386-2.728-1.24-1.158-2.893-6.284 3.225-13.476 6.118-7.11 9.84-10.335 5.374-46.382-2.73-22.158 7.523-31.914 16.204-36.047 1.406-.662 1.736-2.564.66-3.64-1.653-1.653-2.893-3.72-3.39-6.2-1.983-9.26 7.194-18.354 18.438-13.31.248.082.496.247.66.412 5.044 4.547 5.954 10.252 4.218 14.8-.58 1.487.496 2.975 2.067 3.058 9.673.248 22.984 4.878 29.6 26.292 10.664 34.725 15.377 36.13 23.893 40.18 8.434 3.97 9.012 9.26 8.35 10.915zm66.885-59.776c-.248 2.316-.91 4.548-2.067 6.78-1.158 2.15-2.563 4.052-4.3 5.623-1.735 1.57-3.72 2.728-5.786 3.472l-1.406.496c-1.158.332-1.736 1.655-1.323 2.73l.496 1.24c.58 2.23.828 4.464.58 6.78-.248 2.314-.91 4.546-2.067 6.78-1.158 2.15-2.563 4.05-4.3 5.538-1.735 1.488-3.637 2.646-5.786 3.472-2.48.827-4.96 1.24-7.44 1.158-2.48-.083-4.796-.66-7.03-1.82-2.15-1.157-4.05-2.645-5.538-4.546-1.49-1.902-2.564-4.134-3.225-6.697l-9.425-34.394c-.083-.66-.083-1.157.165-1.57.083-.165.248-.413.496-.66.25-.25.497-.414.745-.497l33.236-12.484c2.48-.828 4.88-1.24 7.36-1.16 2.397.084 4.712.745 6.944 1.903 2.232 1.24 4.134 2.728 5.622 4.63 1.57 1.902 2.728 3.97 3.472 6.366.662 2.23.827 4.546.58 6.86zm6.945-104.008c-.496 3.142-2.067 5.705-4.3 7.606-.578.496-.826 1.24-.743 1.984.412 2.563.082 5.21-1.16 7.69-1.157 2.314-2.975 4.133-5.042 5.29-.744.413-1.158 1.24-1.158 2.067.248 3.802-1.24 7.688-4.382 10.416-.165.165-.33.248-.496.413-.66.495-.992 1.405-.827 2.23.827 4.218-.413 8.682-3.72 11.824-2.398 2.232-5.457 3.39-8.6 3.39-2.314 0-4.63-.66-6.613-1.984-.91-.58-2.15-.496-2.894.33-.827.745-1.736 1.49-2.728 1.985-1.902.992-3.886 1.488-5.87 1.488-2.067 0-4.134-.496-5.953-1.488-.91-.496-1.984-.33-2.728.413-2.316 2.315-5.458 3.803-8.93 3.803-.413 0-.827 0-1.158-.082-1.24-.083-2.48-.413-3.638-.91-.58-.247-1.323-.247-1.902 0-1.488.662-3.142.993-4.795.993-1.984 0-3.97-.495-5.787-1.405-4.3-2.232-6.78-6.614-6.78-11.16 0-1.158-.744-2.068-1.82-2.316-2.893-.662-5.538-2.316-7.44-4.962-.827-1.24-1.406-2.563-1.736-3.886h-.33c-6.12 0-11.493-4.465-12.403-10.665-.247-1.323-.164-2.646 0-3.97.166-.99-.33-1.983-1.24-2.48-3.637-1.818-6.365-5.373-6.86-9.755-.497-4.547 1.487-8.847 4.877-11.41.827-.66 1.157-1.736.744-2.728-1.24-3.06-1.322-6.532.166-9.84 1.406-3.14 3.886-5.373 6.78-6.53.744-.332 1.24-.993 1.323-1.737.164-.992.412-1.984.826-2.976.66-1.57 1.654-2.975 2.81-4.133.58-.496.828-1.323.662-2.067-1.158-5.21 1.075-10.748 5.87-13.642 1.654-.992 3.39-1.488 5.21-1.654.908-.083 1.653-.744 1.983-1.57.993-3.225 3.143-6.036 6.367-7.607 3.638-1.82 7.772-1.654 11.16 0 .828.413 1.737.33 2.48-.248 2.647-2.233 6.202-3.39 9.922-2.895 3.47.496 6.365 2.315 8.35 4.96.578.745 1.57 1.076 2.48.828 2.314-.66 4.794-.66 7.275.165 2.563.827 4.63 2.48 6.118 4.465.58.827 1.654 1.157 2.563.827 4.878-1.57 10.417-.165 13.807 4.05 2.728 3.39 3.39 7.69 2.232 11.493-.413 1.406.66 2.728 2.067 2.894 3.72.33 7.276 2.315 9.425 5.705 2.398 3.638 2.563 8.102.91 11.823-.414.992-.084 2.232.826 2.894 3.394 2.647 5.543 7.194 4.8 12.072zm57.38 8.93c-4.052 1.405-7.194 4.216-8.682 6.613-1.488 2.398-3.803 12.484-3.803 14.8 0 2.314 1.24 8.598 4.134 12.98 2.812 4.464 2.15 8.1-1.157 12.65-3.307 4.546-8.6 2.81-10.335 1.487-1.736-1.323-7.028-7.44-10.583-7.854-2.15-.248.744-.413-6.697.083-7.358.414-10.087-.826-10.996-6.53-.91-5.788 2.48-8.517 7.028-11.08 4.547-2.563 6.614-4.217 8.35-5.787 1.736-1.57 5.126-14.882 4.878-18.272-.248-3.306-2.976-7.936-5.21-11.905-1.983-3.472-1.405-6.532.497-10.748 1.902-4.217 7.69-3.638 10.004-2.398 2.314 1.24 4.794 4.794 8.845 6.283 2.646.992 4.795.827 7.193.33 2.398-.495 4.63-1.818 8.35-.66 3.72 1.157 6.118 6.118 6.036 9.508-.082 3.308-3.885 9.013-7.853 10.5zm14.963-84c-4.465 3.14-10.004 3.554-14.717 1.735-1.323-.496-2.728.248-3.142 1.57-3.224 11.328-7.44 20.67-11.575 26.54-.082.084-.164.25-.247.332-6.366 6.78-14.22 2.645-18.603-3.64l-59.115-84.744c-14.386-20.67 21.414-34.973 33.98-35.634 17.53-.992 45.887 10.665 56.635 36.13 1.323 3.142 2.315 6.697 2.976 10.417.248 1.24 1.406 2.066 2.646 1.983 5.374-.413 10.748 1.902 14.055 6.614 3.555 5.043 3.638 11.492.827 16.536.083.165.165.248.33.33 4.798 7.11 3.062 16.867-4.05 21.828zM551.295 400.772c-.248-.083-.58-.165-.91-.165-9.838 0-11.987 12.236-2.81 15.626.248.083.58.165.827.165 10.004 0 12.236-12.32 2.893-15.626zM391.975 201.932c8.68-2.646 7.193-14.055-1.82-14.47-.247 0-.578 0-.826.084-8.682 2.646-7.194 14.055 1.818 14.47.33-.002.58-.002.827-.084z"/></g></svg>